#N canvas 1078 836 450 300 10;
#X obj 84 238 sendOSC;
#X msg 100 116 send /renick/shader;
#X msg 115 144 send /renick/effect;
#X msg 84 90 connect localhost 9000;
#X msg 128 174 send /renick/matrix;
#X msg 141 200 send /renick/reset;
#X connect 1 0 0 0;
#X connect 2 0 0 0;
#X connect 3 0 0 0;
#X connect 4 0 0 0;
#X connect 5 0 0 0;
